<svg xmlns="http://www.w3.org/2000/svg" xmlns:xlink="http://www.w3.org/1999/xlink" width="500" zoomAndPan="magnify" viewBox="0 0 375 374.999991" height="500" preserveAspectRatio="xMidYMid meet" version="1.0"><path fill="#200504" d="M 212.609375 337.683594 C 214.167969 333.347656 215.699219 329.328125 217.046875 325.226562 C 218.398438 321.125 221.019531 317.855469 223.796875 314.714844 C 225.769531 312.480469 228.363281 311.753906 231.246094 312.792969 C 233.140625 313.46875 235.085938 314.195312 236.851562 315.15625 C 243.289062 318.683594 245.390625 324.550781 243.46875 331.558594 C 240.976562 340.695312 237.398438 343.496094 226.183594 345.082031 C 223.824219 345.417969 221.382812 345.132812 218.578125 345.132812 C 218.789062 346.714844 218.8125 348.351562 219.203125 349.90625 C 220.683594 356.007812 222.734375 361.792969 227.042969 366.648438 C 228.519531 368.335938 229.300781 370.722656 230.128906 372.878906 C 230.675781 374.304688 230.105469 374.71875 228.625 374.226562 C 224.859375 373.007812 221.566406 370.566406 219.308594 367.296875 C 214.402344 360.289062 211 352.761719 211.417969 343.9375 C 211.441406 343.445312 210.921875 342.640625 210.457031 342.457031 C 199.453125 337.839844 190.238281 330.804688 181.59375 322.628906 C 171.734375 313.3125 163.816406 302.101562 158.339844 289.667969 C 153.539062 278.871094 148.398438 267.96875 145.910156 256.371094 C 142.09375 238.566406 141.832031 220.578125 144.871094 202.539062 C 148.011719 183.75 152.65625 165.320312 157.070312 146.84375 C 160 134.59375 163.039062 122.316406 163.765625 109.730469 C 164.335938 100.046875 164.179688 90.289062 163.867188 80.582031 C 163.636719 72.847656 162.988281 65.113281 161.949219 57.429688 C 160.703125 48.21875 156.859375 39.757812 153.382812 31.242188 C 148.894531 20.160156 141.808594 11.15625 131.738281 4.589844 C 130.671875 3.886719 129.609375 3.136719 130.207031 1.707031 C 130.804688 0.28125 132.203125 0.4375 133.347656 0.722656 C 136.773438 1.5 139.9375 3.1875 142.507812 5.601562 C 149.671875 12.402344 155.875 19.875 159.585938 29.191406 C 163.21875 38.277344 167.320312 47.207031 168.75 56.988281 C 169.65625 63.324219 170.332031 69.734375 170.667969 76.144531 C 171.136719 85.589844 171.550781 95.066406 171.371094 104.539062 C 171.109375 118.527344 167.917969 132.128906 164.855469 145.699219 C 161.480469 160.859375 157.5625 175.9375 154.34375 191.148438 C 151.695312 203.628906 149.542969 216.246094 149.957031 229.144531 C 150.269531 238.226562 150.007812 247.542969 152.761719 256.1875 C 158.417969 273.941406 163.558594 292.082031 175.003906 307.292969 C 184.0625 319.332031 194.78125 329.664062 208.691406 336.125 C 209.9375 336.722656 211.261719 337.136719 212.609375 337.683594 Z M 219.695312 339.394531 C 223.847656 340.410156 227.535156 339.628906 231.195312 338.460938 C 235.96875 336.90625 238.902344 332.414062 238.667969 327.121094 C 238.460938 322.527344 235.890625 319.828125 230.492188 318.554688 C 230.441406 318.527344 230.363281 318.476562 230.3125 318.503906 C 229.558594 318.789062 228.519531 318.839844 228.078125 319.386719 C 223.355469 325.148438 221.355469 332.078125 219.695312 339.394531 Z M 219.695312 339.394531 " fill-opacity="1" fill-rule="nonzero"/></svg>