<svg xmlns="http://www.w3.org/2000/svg" xmlns:xlink="http://www.w3.org/1999/xlink" width="500" zoomAndPan="magnify" viewBox="0 0 375 374.999991" height="500" preserveAspectRatio="xMidYMid meet" version="1.0"><path fill="#e8e4d8" d="M 323.546875 294.886719 C 321.210938 308.671875 319.097656 323.640625 316.242188 337.808594 C 312.910156 347.980469 316.957031 366.445312 302.957031 368.441406 C 292.390625 369.957031 281.835938 371.519531 271.316406 373.300781 C 264.3125 374.914062 261.605469 368.195312 260.355469 362.675781 C 256.339844 354.59375 250.296875 301.722656 242.835938 305.6875 C 235.113281 306.679688 227.445312 308.101562 219.804688 309.582031 C 206.835938 319.816406 195.082031 333.234375 180.8125 341.855469 C 164.4375 333.085938 156.140625 312.609375 139.992188 303.628906 C 112.769531 337.742188 124.085938 343.285156 75.710938 342.273438 C 71.539062 342.101562 65.667969 343.269531 64.96875 337.742188 C 62.3125 325.898438 59.792969 314.015625 57.089844 301.542969 C 48.582031 293.175781 3.160156 293.359375 5.511719 279.417969 C 7.269531 269.691406 -0.0234375 242.976562 12.066406 240.945312 C 25.125 236.398438 39.710938 235.824219 51.921875 229.441406 C 60.214844 203.488281 48.164062 199.5625 32.035156 182.84375 C 25.398438 173.414062 41.574219 158.339844 44.59375 148.667969 C 48.757812 138.140625 61.695312 142.070312 70.726562 139.800781 C 89.617188 139.339844 107.671875 138.238281 126.488281 135.632812 C 137.378906 94.890625 145.71875 52.4375 156.804688 11.367188 C 157.996094 4.871094 158.910156 0.117188 166.601562 1.917969 C 214.847656 8.726562 204.699219 1.769531 216.589844 48.070312 C 222.628906 63.121094 228.074219 117.414062 240.113281 121.847656 C 264.039062 132.335938 287.628906 143.550781 311.273438 154.644531 C 323.75 165.097656 314.433594 185.847656 319.375 199.984375 C 321.941406 207.871094 315.195312 221.375 324.285156 225.789062 C 340.125 232.863281 357.554688 236.417969 372.867188 244.542969 C 378.707031 251.664062 371.109375 263.398438 372.226562 272.105469 C 370.128906 293.390625 336.777344 284.582031 323.546875 294.886719 Z M 189.449219 231.597656 C 187.375 167.285156 218.722656 173.460938 269.921875 178.765625 C 276.722656 181.144531 283.851562 173.3125 277.496094 167.933594 C 245.453125 154.351562 206.335938 152.097656 203.257812 108.378906 C 202.179688 96.9375 198.675781 86.230469 193.988281 75.859375 C 187.054688 62.914062 187.902344 47.347656 181.421875 34.417969 C 170.605469 27.199219 176.355469 59.125 169.972656 62.898438 C 166.164062 65.054688 165.398438 68.699219 164.398438 72.324219 C 157.445312 122.472656 185.179688 141.191406 123.402344 165.707031 C 107.679688 174.949219 88.804688 165.519531 72.171875 170.90625 C 64.710938 174.195312 65.5 184.902344 74.574219 185.238281 C 99.238281 190.75 125.171875 178.414062 148.226562 191.09375 C 172.277344 203.3125 173.261719 234.097656 178.738281 257.378906 C 182.5 271.96875 174.683594 287.027344 178.585938 301.46875 C 183.125 313.894531 201.292969 304.960938 196.828125 293.605469 C 190.269531 273.53125 188.4375 252.585938 189.449219 231.597656 Z M 299.339844 263.964844 C 310.507812 255.058594 325.066406 259.359375 338.054688 258.667969 C 350.835938 249.417969 322.988281 249.460938 317.769531 249.613281 C 288.953125 248.273438 297.71875 224.144531 285.972656 211.917969 C 282.667969 210.058594 283.710938 206.273438 282.628906 203.429688 C 264.210938 188.074219 281.164062 259.9375 262.105469 258.199219 C 256.128906 259.804688 216.113281 267 233.371094 275.851562 C 243.140625 276.476562 253.230469 276.738281 262.832031 274.328125 C 292.441406 269.582031 283.335938 311.433594 285.347656 329.3125 C 307.976562 354.519531 295.246094 271.878906 299.339844 263.964844 Z M 70.035156 251.054688 C 61.25 255.890625 33.300781 257.050781 35.039062 268.226562 C 35.53125 271.359375 38.210938 273.703125 42.070312 273.308594 C 50.902344 272.410156 59.425781 274.203125 68.011719 275.609375 C 86.441406 277.453125 85.050781 296.082031 85.601562 309.945312 C 88.804688 320.972656 99.824219 315.546875 104.933594 308.804688 C 100.414062 246.828125 126.070312 284.128906 132.507812 263.078125 C 132.441406 259.558594 129.730469 256.589844 125.988281 256.046875 C 108.386719 258.910156 87.332031 245.792969 89.453125 226.425781 C 91.9375 219.546875 84.164062 212.097656 77.417969 214.558594 C 71.300781 222.828125 74.144531 239.910156 70.035156 251.054688 Z M 70.035156 251.054688 " fill-opacity="1" fill-rule="nonzero"/><path fill="#200504" d="M 189.449219 231.597656 C 188.429688 252.582031 190.269531 273.539062 196.820312 293.605469 C 201.269531 304.871094 183.125 313.992188 178.582031 301.46875 C 174.683594 287.027344 182.492188 271.96875 178.730469 257.378906 C 173.253906 234.121094 172.277344 203.304688 148.226562 191.09375 C 125.171875 178.414062 99.238281 190.742188 74.574219 185.230469 C 65.558594 184.894531 64.648438 174.195312 72.171875 170.902344 C 88.8125 165.515625 107.679688 174.941406 123.40625 165.707031 C 185.238281 141.207031 157.421875 122.300781 164.40625 72.324219 C 165.40625 68.707031 166.171875 65.054688 169.988281 62.90625 C 176.453125 58.910156 170.53125 27.421875 181.4375 34.421875 C 187.925781 47.347656 187.074219 62.917969 194.011719 75.867188 C 198.695312 86.238281 202.199219 96.9375 203.273438 108.386719 C 206.34375 152.136719 245.5 154.351562 277.511719 167.9375 C 283.722656 173.3125 276.863281 181.160156 269.929688 178.765625 C 218.492188 173.40625 187.417969 167.410156 189.449219 231.597656 Z M 177.03125 194.425781 C 186.703125 180.066406 201.6875 172.648438 215.144531 162.863281 C 200.875 150.507812 191.546875 135.023438 182.277344 118.59375 C 178.03125 141.160156 168.96875 159.917969 149.199219 172.425781 C 160.277344 178.347656 168.023438 185.90625 177.03125 194.425781 Z M 177.03125 194.425781 " fill-opacity="1" fill-rule="nonzero"/><path fill="#200504" d="M 299.339844 263.964844 C 295.253906 271.933594 307.96875 354.496094 285.339844 329.320312 C 283.328125 311.507812 292.4375 269.535156 262.824219 274.328125 C 253.230469 276.746094 243.140625 276.484375 233.367188 275.859375 C 216.394531 266.648438 256.011719 259.96875 262.089844 258.203125 C 281.15625 259.921875 264.179688 188.117188 282.617188 203.429688 C 283.695312 206.285156 282.644531 210.035156 285.957031 211.917969 C 297.664062 224.0625 289 248.324219 317.761719 249.613281 C 323.09375 249.449219 350.746094 249.433594 338.046875 258.667969 C 325.066406 259.367188 310.507812 255.066406 299.339844 263.964844 Z M 298.730469 254.230469 C 294.421875 250.386719 289.773438 248.972656 285.589844 246.1875 C 284.371094 252.042969 283.277344 257.304688 282.25 262.265625 C 283.402344 264.34375 284.246094 266.179688 287.035156 266.804688 C 289.132812 261.390625 290.644531 255.125 298.730469 254.230469 Z M 298.730469 254.230469 " fill-opacity="1" fill-rule="nonzero"/><path fill="#200504" d="M 70.035156 251.054688 C 74.144531 239.863281 71.292969 222.894531 77.417969 214.558594 C 84.1875 212.132812 91.921875 219.523438 89.453125 226.433594 C 87.332031 245.800781 108.378906 258.925781 125.980469 256.054688 C 129.722656 256.597656 132.433594 259.574219 132.5 263.085938 C 126.003906 284.140625 100.417969 246.851562 104.933594 308.8125 C 99.808594 315.53125 88.828125 321 85.609375 309.953125 C 85.058594 296.089844 86.449219 277.453125 68.019531 275.617188 C 59.433594 274.210938 50.910156 272.414062 42.078125 273.308594 C 38.21875 273.703125 35.539062 271.359375 35.046875 268.226562 C 33.234375 257.066406 61.308594 255.875 70.035156 251.054688 Z M 71.160156 263.503906 C 80.011719 264.097656 86.046875 268.019531 92.183594 272.109375 C 93.402344 269.765625 94.4375 267.78125 95.449219 265.832031 C 90.898438 261.664062 86.738281 257.855469 82.355469 253.84375 C 78.964844 258.300781 76.589844 260.09375 71.160156 263.503906 Z M 71.160156 263.503906 " fill-opacity="1" fill-rule="nonzero"/><path fill="#e8e4d8" d="M 177.03125 194.425781 C 168.023438 185.90625 160.277344 178.355469 149.207031 172.433594 C 168.976562 159.917969 178.03125 141.167969 182.285156 118.601562 C 191.554688 135.023438 200.882812 150.515625 215.152344 162.871094 C 201.679688 172.640625 186.703125 180.058594 177.03125 194.425781 Z M 177.03125 194.425781 " fill-opacity="1" fill-rule="nonzero"/><path fill="#e8e4d8" d="M 298.730469 254.230469 C 290.644531 255.132812 289.132812 261.398438 287.027344 266.804688 C 284.238281 266.179688 283.398438 264.335938 282.242188 262.265625 C 283.277344 257.304688 284.371094 252.042969 285.582031 246.1875 C 289.773438 248.972656 294.429688 250.378906 298.730469 254.230469 Z M 298.730469 254.230469 " fill-opacity="1" fill-rule="nonzero"/><path fill="#e8e4d8" d="M 71.160156 263.503906 C 76.582031 260.09375 78.964844 258.300781 82.355469 253.84375 C 86.738281 257.863281 90.898438 261.664062 95.449219 265.832031 C 94.4375 267.78125 93.402344 269.765625 92.183594 272.109375 C 86.046875 268.019531 80.019531 264.089844 71.160156 263.503906 Z M 71.160156 263.503906 " fill-opacity="1" fill-rule="nonzero"/><path fill="#e8e4d8" d="M 323.546875 294.886719 C 321.210938 308.671875 319.097656 323.640625 316.242188 337.808594 C 312.910156 347.980469 316.957031 366.445312 302.957031 368.441406 C 292.390625 369.957031 281.835938 371.519531 271.316406 373.300781 C 264.3125 374.914062 261.605469 368.195312 260.355469 362.675781 C 256.339844 354.59375 250.296875 301.722656 242.835938 305.6875 C 235.113281 306.679688 227.445312 308.101562 219.804688 309.582031 C 206.835938 319.816406 195.082031 333.234375 180.8125 341.855469 C 164.4375 333.085938 156.140625 312.609375 139.992188 303.628906 C 112.769531 337.742188 124.085938 343.285156 75.710938 342.273438 C 71.539062 342.101562 65.667969 343.269531 64.96875 337.742188 C 62.3125 325.898438 59.792969 314.015625 57.089844 301.542969 C 48.582031 293.175781 3.160156 293.359375 5.511719 279.417969 C 7.269531 269.691406 -0.0234375 242.976562 12.066406 240.945312 C 25.125 236.398438 39.710938 235.824219 51.921875 229.441406 C 60.214844 203.488281 48.164062 199.5625 32.035156 182.84375 C 25.398438 173.414062 41.574219 158.339844 44.59375 148.667969 C 48.757812 138.140625 61.695312 142.070312 70.726562 139.800781 C 89.617188 139.339844 107.671875 138.238281 126.488281 135.632812 C 137.378906 94.890625 145.71875 52.4375 156.804688 11.367188 C 157.996094 4.871094 158.910156 0.117188 166.601562 1.917969 C 214.847656 8.726562 204.699219 1.769531 216.589844 48.070312 C 222.628906 63.121094 228.074219 117.414062 240.113281 121.847656 C 264.039062 132.335938 287.628906 143.550781 311.273438 154.644531 C 323.75 165.097656 314.433594 185.847656 319.375 199.984375 C 321.941406 207.871094 315.195312 221.375 324.285156 225.789062 C 340.125 232.863281 357.554688 236.417969 372.867188 244.542969 C 378.707031 251.664062 371.109375 263.398438 372.226562 272.105469 C 370.128906 293.390625 336.777344 284.582031 323.546875 294.886719 Z M 189.449219 231.597656 C 187.375 167.285156 218.722656 173.460938 269.921875 178.765625 C 276.722656 181.144531 283.851562 173.3125 277.496094 167.933594 C 245.453125 154.351562 206.335938 152.097656 203.257812 108.378906 C 202.179688 96.9375 198.675781 86.230469 193.988281 75.859375 C 187.054688 62.914062 187.902344 47.347656 181.421875 34.417969 C 170.605469 27.199219 176.355469 59.125 169.972656 62.898438 C 166.164062 65.054688 165.398438 68.699219 164.398438 72.324219 C 157.445312 122.472656 185.179688 141.191406 123.402344 165.707031 C 107.679688 174.949219 88.804688 165.519531 72.171875 170.90625 C 64.710938 174.195312 65.5 184.902344 74.574219 185.238281 C 99.238281 190.75 125.171875 178.414062 148.226562 191.09375 C 172.277344 203.3125 173.261719 234.097656 178.738281 257.378906 C 182.5 271.96875 174.683594 287.027344 178.585938 301.46875 C 183.125 313.894531 201.292969 304.960938 196.828125 293.605469 C 190.269531 273.53125 188.4375 252.585938 189.449219 231.597656 Z M 299.339844 263.964844 C 310.507812 255.058594 325.066406 259.359375 338.054688 258.667969 C 350.835938 249.417969 322.988281 249.460938 317.769531 249.613281 C 288.953125 248.273438 297.71875 224.144531 285.972656 211.917969 C 282.667969 210.058594 283.710938 206.273438 282.628906 203.429688 C 264.210938 188.074219 281.164062 259.9375 262.105469 258.199219 C 256.128906 259.804688 216.113281 267 233.371094 275.851562 C 243.140625 276.476562 253.230469 276.738281 262.832031 274.328125 C 292.441406 269.582031 283.335938 311.433594 285.347656 329.3125 C 307.976562 354.519531 295.246094 271.878906 299.339844 263.964844 Z M 70.035156 251.054688 C 61.25 255.890625 33.300781 257.050781 35.039062 268.226562 C 35.53125 271.359375 38.210938 273.703125 42.070312 273.308594 C 50.902344 272.410156 59.425781 274.203125 68.011719 275.609375 C 86.441406 277.453125 85.050781 296.082031 85.601562 309.945312 C 88.804688 320.972656 99.824219 315.546875 104.933594 308.804688 C 100.414062 246.828125 126.070312 284.128906 132.507812 263.078125 C 132.441406 259.558594 129.730469 256.589844 125.988281 256.046875 C 108.386719 258.910156 87.332031 245.792969 89.453125 226.425781 C 91.9375 219.546875 84.164062 212.097656 77.417969 214.558594 C 71.300781 222.828125 74.144531 239.910156 70.035156 251.054688 Z M 70.035156 251.054688 " fill-opacity="1" fill-rule="nonzero"/><path fill="#200504" d="M 189.449219 231.597656 C 188.429688 252.582031 190.269531 273.539062 196.820312 293.605469 C 201.269531 304.871094 183.125 313.992188 178.582031 301.46875 C 174.683594 287.027344 182.492188 271.96875 178.730469 257.378906 C 173.253906 234.121094 172.277344 203.304688 148.226562 191.09375 C 125.171875 178.414062 99.238281 190.742188 74.574219 185.230469 C 65.558594 184.894531 64.648438 174.195312 72.171875 170.902344 C 88.8125 165.515625 107.679688 174.941406 123.40625 165.707031 C 185.238281 141.207031 157.421875 122.300781 164.40625 72.324219 C 165.40625 68.707031 166.171875 65.054688 169.988281 62.90625 C 176.453125 58.910156 170.53125 27.421875 181.4375 34.421875 C 187.925781 47.347656 187.074219 62.917969 194.011719 75.867188 C 198.695312 86.238281 202.199219 96.9375 203.273438 108.386719 C 206.34375 152.136719 245.5 154.351562 277.511719 167.9375 C 283.722656 173.3125 276.863281 181.160156 269.929688 178.765625 C 218.492188 173.40625 187.417969 167.410156 189.449219 231.597656 Z M 177.03125 194.425781 C 186.703125 180.066406 201.6875 172.648438 215.144531 162.863281 C 200.875 150.507812 191.546875 135.023438 182.277344 118.59375 C 178.03125 141.160156 168.96875 159.917969 149.199219 172.425781 C 160.277344 178.347656 168.023438 185.90625 177.03125 194.425781 Z M 177.03125 194.425781 " fill-opacity="1" fill-rule="nonzero"/><path fill="#200504" d="M 299.339844 263.964844 C 295.253906 271.933594 307.96875 354.496094 285.339844 329.320312 C 283.328125 311.507812 292.4375 269.535156 262.824219 274.328125 C 253.230469 276.746094 243.140625 276.484375 233.367188 275.859375 C 216.394531 266.648438 256.011719 259.96875 262.089844 258.203125 C 281.15625 259.921875 264.179688 188.117188 282.617188 203.429688 C 283.695312 206.285156 282.644531 210.035156 285.957031 211.917969 C 297.664062 224.0625 289 248.324219 317.761719 249.613281 C 323.09375 249.449219 350.746094 249.433594 338.046875 258.667969 C 325.066406 259.367188 310.507812 255.066406 299.339844 263.964844 Z M 298.730469 254.230469 C 294.421875 250.386719 289.773438 248.972656 285.589844 246.1875 C 284.371094 252.042969 283.277344 257.304688 282.25 262.265625 C 283.402344 264.34375 284.246094 266.179688 287.035156 266.804688 C 289.132812 261.390625 290.644531 255.125 298.730469 254.230469 Z M 298.730469 254.230469 " fill-opacity="1" fill-rule="nonzero"/><path fill="#200504" d="M 70.035156 251.054688 C 74.144531 239.863281 71.292969 222.894531 77.417969 214.558594 C 84.1875 212.132812 91.921875 219.523438 89.453125 226.433594 C 87.332031 245.800781 108.378906 258.925781 125.980469 256.054688 C 129.722656 256.597656 132.433594 259.574219 132.5 263.085938 C 126.003906 284.140625 100.417969 246.851562 104.933594 308.8125 C 99.808594 315.53125 88.828125 321 85.609375 309.953125 C 85.058594 296.089844 86.449219 277.453125 68.019531 275.617188 C 59.433594 274.210938 50.910156 272.414062 42.078125 273.308594 C 38.21875 273.703125 35.539062 271.359375 35.046875 268.226562 C 33.234375 257.066406 61.308594 255.875 70.035156 251.054688 Z M 71.160156 263.503906 C 80.011719 264.097656 86.046875 268.019531 92.183594 272.109375 C 93.402344 269.765625 94.4375 267.78125 95.449219 265.832031 C 90.898438 261.664062 86.738281 257.855469 82.355469 253.84375 C 78.964844 258.300781 76.589844 260.09375 71.160156 263.503906 Z M 71.160156 263.503906 " fill-opacity="1" fill-rule="nonzero"/><path fill="#e8e4d8" d="M 177.03125 194.425781 C 168.023438 185.90625 160.277344 178.355469 149.207031 172.433594 C 168.976562 159.917969 178.03125 141.167969 182.285156 118.601562 C 191.554688 135.023438 200.882812 150.515625 215.152344 162.871094 C 201.679688 172.640625 186.703125 180.058594 177.03125 194.425781 Z M 177.03125 194.425781 " fill-opacity="1" fill-rule="nonzero"/><path fill="#e8e4d8" d="M 298.730469 254.230469 C 290.644531 255.132812 289.132812 261.398438 287.027344 266.804688 C 284.238281 266.179688 283.398438 264.335938 282.242188 262.265625 C 283.277344 257.304688 284.371094 252.042969 285.582031 246.1875 C 289.773438 248.972656 294.429688 250.378906 298.730469 254.230469 Z M 298.730469 254.230469 " fill-opacity="1" fill-rule="nonzero"/><path fill="#e8e4d8" d="M 71.160156 263.503906 C 76.582031 260.09375 78.964844 258.300781 82.355469 253.84375 C 86.738281 257.863281 90.898438 261.664062 95.449219 265.832031 C 94.4375 267.78125 93.402344 269.765625 92.183594 272.109375 C 86.046875 268.019531 80.019531 264.089844 71.160156 263.503906 Z M 71.160156 263.503906 " fill-opacity="1" fill-rule="nonzero"/></svg>