<svg xmlns="http://www.w3.org/2000/svg" xmlns:xlink="http://www.w3.org/1999/xlink" width="500" zoomAndPan="magnify" viewBox="0 0 375 374.999991" height="500" preserveAspectRatio="xMidYMid meet" version="1.0"><path fill="#e9e5d9" d="M 289.082031 118.257812 C 303.835938 117.695312 316.652344 118.675781 331 119.933594 C 340.859375 121.90625 362.167969 114.375 365.410156 126.667969 C 366.679688 135.996094 374.992188 147.167969 370.582031 155.976562 C 361.984375 165.511719 353.628906 175.257812 345.117188 184.855469 C 337.03125 193.226562 357.652344 219.246094 360.5 230.25 C 365.261719 237.1875 364.648438 245.195312 357.460938 250.273438 C 347.804688 259.078125 340.347656 269.464844 330.882812 278.480469 C 315.601562 274.488281 276.421875 244.761719 265.421875 252.730469 C 239.265625 265.855469 215.78125 286.304688 187.019531 292.6875 C 157.0625 302.367188 153.046875 294.46875 138.117188 325.460938 C 131.285156 336.1875 108.496094 332.085938 96.570312 336.277344 C 84.414062 338.191406 83.261719 316.601562 78.207031 308.632812 C 75.402344 301.4375 73.917969 300.757812 66.277344 302.226562 C 55.941406 302.402344 23.949219 312.464844 19.714844 302.015625 C 17.019531 290.515625 0.0273438 274.3125 9.488281 263.75 C 18.867188 251.429688 50.179688 231.859375 46.199219 216.082031 C 42.4375 200.773438 38.601562 185.476562 34.929688 170.144531 C 33.824219 165.53125 34.738281 163.683594 39.28125 162.199219 C 76.839844 150.164062 114.960938 139.996094 152.664062 128.457031 C 214.757812 109.699219 193.183594 126.417969 206.878906 51.707031 C 207.652344 41.859375 237.746094 43.144531 246.597656 39.4375 C 253.179688 37.523438 256.195312 43.503906 258.328125 48.664062 C 268.824219 71.882812 277.511719 95.492188 289.082031 118.257812 Z M 268.242188 212.878906 C 318.128906 266.542969 362.917969 257.59375 306.53125 187.875 C 318.105469 179.546875 362.1875 162.386719 339.035156 145.054688 C 319.289062 136.859375 296.152344 144.175781 275.328125 141.0625 C 267.671875 123.421875 257.570312 108.667969 250.871094 91.070312 C 245.648438 83.554688 244.976562 65.355469 233.378906 66.539062 C 230.164062 67.375 228.449219 69.546875 228.066406 72.785156 C 225.050781 94.730469 224.1875 116.671875 217.402344 138.019531 C 197.769531 140.199219 179.003906 145.851562 159.179688 146.617188 C 155.222656 146.902344 151.285156 148.578125 147.515625 150.070312 C 134.582031 156.839844 139.722656 172.75 153.964844 172.726562 C 168.269531 174.40625 178.609375 187.160156 193.578125 185.46875 C 201.539062 186.265625 215.199219 182.625 221.429688 186.808594 C 195.613281 263.835938 215.789062 269.320312 268.242188 212.878906 Z M 126.386719 276.308594 C 140.140625 273.09375 152.410156 278.371094 165.542969 274.957031 C 198.53125 264.96875 161.78125 242.109375 145.574219 237.632812 C 187.910156 185.886719 150.773438 187.675781 111.476562 212.28125 C 91.96875 203.84375 83.765625 185.460938 70.222656 170.714844 C 48.84375 163.039062 64.210938 192.261719 68.527344 200.363281 C 73.496094 210.800781 76.042969 221.835938 77.007812 232.96875 C 68.769531 241.5 56.957031 243.945312 49.136719 253.097656 C 43.703125 260.53125 29.40625 266.390625 32.984375 277.121094 C 34.886719 281.507812 38.945312 282.167969 43.292969 282.289062 C 60.171875 284.730469 74.480469 274.820312 91.113281 276.03125 C 93.648438 287.519531 94.210938 299.390625 98.4375 310.378906 C 116.328125 334.324219 128.875 291.253906 126.386719 276.308594 Z M 126.386719 276.308594 " fill-opacity="1" fill-rule="nonzero"/><path fill="#1f0303" d="M 268.242188 212.878906 C 215.5625 269.554688 195.710938 263.550781 221.429688 186.792969 C 215.082031 182.609375 201.605469 186.25 193.578125 185.453125 C 178.609375 187.152344 168.269531 174.402344 153.964844 172.71875 C 139.757812 172.75 134.542969 156.832031 147.515625 150.0625 C 151.285156 148.578125 155.222656 146.902344 159.175781 146.617188 C 178.996094 145.851562 197.753906 140.199219 217.394531 138.019531 C 224.175781 116.679688 225.042969 94.730469 228.058594 72.785156 C 228.441406 69.539062 230.164062 67.375 233.371094 66.539062 C 244.976562 65.339844 245.632812 83.558594 250.863281 91.0625 C 257.5625 108.660156 267.664062 123.421875 275.320312 141.054688 C 296.144531 144.167969 319.285156 136.859375 339.027344 145.046875 C 362.167969 162.417969 318.144531 179.503906 306.523438 187.867188 C 363.035156 257.789062 317.917969 266.382812 268.242188 212.878906 Z M 331.738281 156.019531 C 310.621094 139.375 266.121094 163.84375 265.390625 145.492188 C 264.128906 134.882812 252.316406 131.339844 249.484375 121.277344 C 246 116.453125 245.6875 108.550781 240.660156 105.488281 C 237.90625 124.171875 238 153.527344 214.371094 157.375 C 205.941406 158.367188 197.578125 159.9375 189.210938 161.371094 C 188.097656 161.5625 186.425781 161.363281 186.0625 163.015625 C 199.925781 165.707031 214.640625 169.355469 227.957031 175.585938 C 232.933594 177.363281 234.445312 180.636719 232.765625 185.367188 C 228.894531 196.984375 230.785156 209.171875 229.710938 221.148438 C 229.683594 222.191406 229.03125 223.507812 230.347656 224.109375 C 243.160156 220.066406 249.542969 204.273438 256.933594 193.730469 C 269.578125 179.589844 284.53125 203.828125 296.84375 209.1875 C 296.097656 202.351562 292.898438 196.507812 289.964844 190.515625 C 276.019531 166.90625 318.289062 182.546875 331.738281 156.019531 Z M 331.738281 156.019531 " fill-opacity="1" fill-rule="nonzero"/><path fill="#1f0303" d="M 126.386719 276.308594 C 128.882812 291.230469 116.3125 334.339844 98.433594 310.371094 C 94.203125 299.382812 93.648438 287.511719 91.113281 276.023438 C 74.488281 274.820312 60.164062 284.730469 43.292969 282.28125 C 38.953125 282.160156 34.886719 281.507812 32.984375 277.113281 C 29.398438 266.382812 43.707031 260.53125 49.136719 253.089844 C 56.964844 243.929688 68.769531 241.5 77.007812 232.960938 C 76.042969 221.828125 73.496094 210.796875 68.519531 200.355469 C 64.210938 192.269531 48.835938 163.023438 70.214844 170.707031 C 83.757812 185.453125 91.96875 203.835938 111.46875 212.273438 C 150.90625 187.597656 187.828125 185.972656 145.566406 237.625 C 161.773438 242.101562 198.523438 264.964844 165.535156 274.949219 C 152.410156 278.363281 140.140625 273.085938 126.386719 276.308594 Z M 153.394531 259.472656 C 118.09375 241.113281 129.636719 239.769531 147.554688 212.148438 C 148.296875 211.042969 149.402344 209.851562 147.816406 207.878906 C 97.949219 225.988281 126.539062 234.03125 80.441406 200.726562 C 81.449219 207.496094 88.503906 230.578125 91.003906 235.636719 C 96.863281 246.480469 80.660156 250.625 74.75 256.824219 C 73.898438 257.484375 72.902344 258.347656 73.816406 260.21875 C 96.636719 264.75 98.324219 266.074219 107.496094 287.804688 C 111.257812 283.109375 111.855469 277.554688 113.707031 272.046875 C 118.183594 259.238281 141.695312 261.453125 153.394531 259.472656 Z M 153.394531 259.472656 " fill-opacity="1" fill-rule="nonzero"/><path fill="#e9e5d9" d="M 331.738281 156.019531 C 318.195312 182.609375 276.050781 166.863281 289.964844 190.527344 C 292.90625 196.53125 296.097656 202.359375 296.84375 209.203125 C 284.59375 203.851562 269.535156 179.589844 256.933594 193.738281 C 249.550781 204.273438 243.152344 220.082031 230.347656 224.117188 C 229.03125 223.515625 229.683594 222.199219 229.710938 221.15625 C 230.785156 209.179688 228.894531 196.992188 232.765625 185.375 C 234.445312 180.644531 232.933594 177.367188 227.957031 175.585938 C 214.648438 169.363281 199.910156 165.699219 186.0625 163.015625 C 186.417969 161.371094 188.097656 161.5625 189.210938 161.371094 C 197.578125 159.9375 205.941406 158.359375 214.371094 157.367188 C 238.007812 153.511719 237.890625 124.1875 240.660156 105.480469 C 245.671875 108.527344 246.015625 116.453125 249.484375 121.269531 C 252.316406 131.332031 264.128906 134.878906 265.390625 145.484375 C 265.984375 163.820312 310.621094 139.402344 331.738281 156.019531 Z M 331.738281 156.019531 " fill-opacity="1" fill-rule="nonzero"/><path fill="#e9e5d9" d="M 153.394531 259.472656 C 141.722656 261.445312 118.160156 259.246094 113.707031 272.03125 C 111.855469 277.546875 111.265625 283.09375 107.496094 287.789062 C 98.316406 266.03125 96.605469 264.738281 73.816406 260.203125 C 72.902344 258.339844 73.898438 257.476562 74.75 256.8125 C 80.660156 250.617188 96.863281 246.464844 91.011719 235.625 C 88.511719 230.5625 81.449219 207.484375 80.449219 200.714844 C 126.605469 234.09375 98.023438 225.898438 147.824219 207.863281 C 149.402344 209.835938 148.296875 211.027344 147.554688 212.140625 C 129.578125 239.820312 118.160156 241.128906 153.394531 259.472656 Z M 153.394531 259.472656 " fill-opacity="1" fill-rule="nonzero"/><path fill="#e9e5d9" d="M 289.082031 118.257812 C 303.835938 117.695312 316.652344 118.675781 331 119.933594 C 340.859375 121.90625 362.167969 114.375 365.410156 126.667969 C 366.679688 135.996094 374.992188 147.167969 370.582031 155.976562 C 361.984375 165.511719 353.628906 175.257812 345.117188 184.855469 C 337.03125 193.226562 357.652344 219.246094 360.5 230.25 C 365.261719 237.1875 364.648438 245.195312 357.460938 250.273438 C 347.804688 259.078125 340.347656 269.464844 330.882812 278.480469 C 315.601562 274.488281 276.421875 244.761719 265.421875 252.730469 C 239.265625 265.855469 215.78125 286.304688 187.019531 292.6875 C 157.0625 302.367188 153.046875 294.46875 138.117188 325.460938 C 131.285156 336.1875 108.496094 332.085938 96.570312 336.277344 C 84.414062 338.191406 83.261719 316.601562 78.207031 308.632812 C 75.402344 301.4375 73.917969 300.757812 66.277344 302.226562 C 55.941406 302.402344 23.949219 312.464844 19.714844 302.015625 C 17.019531 290.515625 0.0273438 274.3125 9.488281 263.75 C 18.867188 251.429688 50.179688 231.859375 46.199219 216.082031 C 42.4375 200.773438 38.601562 185.476562 34.929688 170.144531 C 33.824219 165.53125 34.738281 163.683594 39.28125 162.199219 C 76.839844 150.164062 114.960938 139.996094 152.664062 128.457031 C 214.757812 109.699219 193.183594 126.417969 206.878906 51.707031 C 207.652344 41.859375 237.746094 43.144531 246.597656 39.4375 C 253.179688 37.523438 256.195312 43.503906 258.328125 48.664062 C 268.824219 71.882812 277.511719 95.492188 289.082031 118.257812 Z M 268.242188 212.878906 C 318.128906 266.542969 362.917969 257.59375 306.53125 187.875 C 318.105469 179.546875 362.1875 162.386719 339.035156 145.054688 C 319.289062 136.859375 296.152344 144.175781 275.328125 141.0625 C 267.671875 123.421875 257.570312 108.667969 250.871094 91.070312 C 245.648438 83.554688 244.976562 65.355469 233.378906 66.539062 C 230.164062 67.375 228.449219 69.546875 228.066406 72.785156 C 225.050781 94.730469 224.1875 116.671875 217.402344 138.019531 C 197.769531 140.199219 179.003906 145.851562 159.179688 146.617188 C 155.222656 146.902344 151.285156 148.578125 147.515625 150.070312 C 134.582031 156.839844 139.722656 172.75 153.964844 172.726562 C 168.269531 174.40625 178.609375 187.160156 193.578125 185.46875 C 201.539062 186.265625 215.199219 182.625 221.429688 186.808594 C 195.613281 263.835938 215.789062 269.320312 268.242188 212.878906 Z M 126.386719 276.308594 C 140.140625 273.09375 152.410156 278.371094 165.542969 274.957031 C 198.53125 264.96875 161.78125 242.109375 145.574219 237.632812 C 187.910156 185.886719 150.773438 187.675781 111.476562 212.28125 C 91.96875 203.84375 83.765625 185.460938 70.222656 170.714844 C 48.84375 163.039062 64.210938 192.261719 68.527344 200.363281 C 73.496094 210.800781 76.042969 221.835938 77.007812 232.96875 C 68.769531 241.5 56.957031 243.945312 49.136719 253.097656 C 43.703125 260.53125 29.40625 266.390625 32.984375 277.121094 C 34.886719 281.507812 38.945312 282.167969 43.292969 282.289062 C 60.171875 284.730469 74.480469 274.820312 91.113281 276.03125 C 93.648438 287.519531 94.210938 299.390625 98.4375 310.378906 C 116.328125 334.324219 128.875 291.253906 126.386719 276.308594 Z M 126.386719 276.308594 " fill-opacity="1" fill-rule="nonzero"/><path fill="#1f0303" d="M 268.242188 212.878906 C 215.5625 269.554688 195.710938 263.550781 221.429688 186.792969 C 215.082031 182.609375 201.605469 186.25 193.578125 185.453125 C 178.609375 187.152344 168.269531 174.402344 153.964844 172.71875 C 139.757812 172.75 134.542969 156.832031 147.515625 150.0625 C 151.285156 148.578125 155.222656 146.902344 159.175781 146.617188 C 178.996094 145.851562 197.753906 140.199219 217.394531 138.019531 C 224.175781 116.679688 225.042969 94.730469 228.058594 72.785156 C 228.441406 69.539062 230.164062 67.375 233.371094 66.539062 C 244.976562 65.339844 245.632812 83.558594 250.863281 91.0625 C 257.5625 108.660156 267.664062 123.421875 275.320312 141.054688 C 296.144531 144.167969 319.285156 136.859375 339.027344 145.046875 C 362.167969 162.417969 318.144531 179.503906 306.523438 187.867188 C 363.035156 257.789062 317.917969 266.382812 268.242188 212.878906 Z M 331.738281 156.019531 C 310.621094 139.375 266.121094 163.84375 265.390625 145.492188 C 264.128906 134.882812 252.316406 131.339844 249.484375 121.277344 C 246 116.453125 245.6875 108.550781 240.660156 105.488281 C 237.90625 124.171875 238 153.527344 214.371094 157.375 C 205.941406 158.367188 197.578125 159.9375 189.210938 161.371094 C 188.097656 161.5625 186.425781 161.363281 186.0625 163.015625 C 199.925781 165.707031 214.640625 169.355469 227.957031 175.585938 C 232.933594 177.363281 234.445312 180.636719 232.765625 185.367188 C 228.894531 196.984375 230.785156 209.171875 229.710938 221.148438 C 229.683594 222.191406 229.03125 223.507812 230.347656 224.109375 C 243.160156 220.066406 249.542969 204.273438 256.933594 193.730469 C 269.578125 179.589844 284.53125 203.828125 296.84375 209.1875 C 296.097656 202.351562 292.898438 196.507812 289.964844 190.515625 C 276.019531 166.90625 318.289062 182.546875 331.738281 156.019531 Z M 331.738281 156.019531 " fill-opacity="1" fill-rule="nonzero"/><path fill="#1f0303" d="M 126.386719 276.308594 C 128.882812 291.230469 116.3125 334.339844 98.433594 310.371094 C 94.203125 299.382812 93.648438 287.511719 91.113281 276.023438 C 74.488281 274.820312 60.164062 284.730469 43.292969 282.28125 C 38.953125 282.160156 34.886719 281.507812 32.984375 277.113281 C 29.398438 266.382812 43.707031 260.53125 49.136719 253.089844 C 56.964844 243.929688 68.769531 241.5 77.007812 232.960938 C 76.042969 221.828125 73.496094 210.796875 68.519531 200.355469 C 64.210938 192.269531 48.835938 163.023438 70.214844 170.707031 C 83.757812 185.453125 91.96875 203.835938 111.46875 212.273438 C 150.90625 187.597656 187.828125 185.972656 145.566406 237.625 C 161.773438 242.101562 198.523438 264.964844 165.535156 274.949219 C 152.410156 278.363281 140.140625 273.085938 126.386719 276.308594 Z M 153.394531 259.472656 C 118.09375 241.113281 129.636719 239.769531 147.554688 212.148438 C 148.296875 211.042969 149.402344 209.851562 147.816406 207.878906 C 97.949219 225.988281 126.539062 234.03125 80.441406 200.726562 C 81.449219 207.496094 88.503906 230.578125 91.003906 235.636719 C 96.863281 246.480469 80.660156 250.625 74.75 256.824219 C 73.898438 257.484375 72.902344 258.347656 73.816406 260.21875 C 96.636719 264.75 98.324219 266.074219 107.496094 287.804688 C 111.257812 283.109375 111.855469 277.554688 113.707031 272.046875 C 118.183594 259.238281 141.695312 261.453125 153.394531 259.472656 Z M 153.394531 259.472656 " fill-opacity="1" fill-rule="nonzero"/><path fill="#e9e5d9" d="M 331.738281 156.019531 C 318.195312 182.609375 276.050781 166.863281 289.964844 190.527344 C 292.90625 196.53125 296.097656 202.359375 296.84375 209.203125 C 284.59375 203.851562 269.535156 179.589844 256.933594 193.738281 C 249.550781 204.273438 243.152344 220.082031 230.347656 224.117188 C 229.03125 223.515625 229.683594 222.199219 229.710938 221.15625 C 230.785156 209.179688 228.894531 196.992188 232.765625 185.375 C 234.445312 180.644531 232.933594 177.367188 227.957031 175.585938 C 214.648438 169.363281 199.910156 165.699219 186.0625 163.015625 C 186.417969 161.371094 188.097656 161.5625 189.210938 161.371094 C 197.578125 159.9375 205.941406 158.359375 214.371094 157.367188 C 238.007812 153.511719 237.890625 124.1875 240.660156 105.480469 C 245.671875 108.527344 246.015625 116.453125 249.484375 121.269531 C 252.316406 131.332031 264.128906 134.878906 265.390625 145.484375 C 265.984375 163.820312 310.621094 139.402344 331.738281 156.019531 Z M 331.738281 156.019531 " fill-opacity="1" fill-rule="nonzero"/><path fill="#e9e5d9" d="M 153.394531 259.472656 C 141.722656 261.445312 118.160156 259.246094 113.707031 272.03125 C 111.855469 277.546875 111.265625 283.09375 107.496094 287.789062 C 98.316406 266.03125 96.605469 264.738281 73.816406 260.203125 C 72.902344 258.339844 73.898438 257.476562 74.75 256.8125 C 80.660156 250.617188 96.863281 246.464844 91.011719 235.625 C 88.511719 230.5625 81.449219 207.484375 80.449219 200.714844 C 126.605469 234.09375 98.023438 225.898438 147.824219 207.863281 C 149.402344 209.835938 148.296875 211.027344 147.554688 212.140625 C 129.578125 239.820312 118.160156 241.128906 153.394531 259.472656 Z M 153.394531 259.472656 " fill-opacity="1" fill-rule="nonzero"/></svg>